<svg width="14" height="13" viewBox="0 0 14 13" fill="none" xmlns="http://www.w3.org/2000/svg">
<path d="M3.69895 11.9618C3.49621 11.9451 3.34106 11.7935 3.34106 11.6119V9.85508H12.4015C13.163 9.85508 13.7803 10.4056 13.7803 11.0848V12.0173C13.7803 12.4054 13.4276 12.72 12.9924 12.72C12.9684 12.72 12.9443 12.719 12.9204 12.717L3.69895 11.9618ZM5.57089 9.15239H3.03346L0.792224 1.15654C0.730084 0.934774 0.918123 0.719971 1.17441 0.719971H2.1979C3.49852 0.719971 4.59252 1.5896 4.74159 2.74198L5.57089 9.15239ZM7.11736 3.84914C7.02899 3.67181 7.11853 3.46419 7.31734 3.38537C7.51616 3.30656 7.74895 3.38641 7.83732 3.56374C8.14521 4.18161 8.14521 4.81233 7.83732 5.4302C7.61997 5.86639 7.61997 6.2897 7.83732 6.72589C7.92568 6.90321 7.83615 7.11084 7.63733 7.18966C7.43852 7.26847 7.20572 7.18862 7.11736 7.01129C6.80947 6.39342 6.80947 5.7627 7.11736 5.14483C7.3347 4.70864 7.3347 4.28533 7.11736 3.84914ZM11.4506 3.84914C11.3623 3.67181 11.4518 3.46419 11.6506 3.38537C11.8494 3.30656 12.0822 3.38641 12.1706 3.56374C12.4785 4.18161 12.4785 4.81233 12.1706 5.4302C11.9533 5.86639 11.9533 6.2897 12.1706 6.72589C12.259 6.90321 12.1694 7.11084 11.9706 7.18966C11.7718 7.26847 11.539 7.18862 11.4506 7.01129C11.1428 6.39342 11.1428 5.7627 11.4506 5.14483C11.668 4.70864 11.668 4.28533 11.4506 3.84914ZM9.28398 2.26805C9.19562 2.09073 9.28515 1.8831 9.48397 1.80428C9.68278 1.72547 9.91558 1.80533 10.0039 1.98265C10.3118 2.60052 10.3118 3.23125 10.0039 3.84912C9.7866 4.28531 9.7866 4.70861 10.0039 5.1448C10.0923 5.32213 10.0028 5.52976 9.80396 5.60857C9.60514 5.68739 9.37235 5.60753 9.28398 5.4302C8.97609 4.81233 8.97609 4.18161 9.28398 3.56374C9.50133 3.12757 9.50133 2.70424 9.28398 2.26805Z" fill="black"/>
</svg>
