<svg width="17" height="16" viewBox="0 0 17 16" fill="none" xmlns="http://www.w3.org/2000/svg">
<path d="M10.4026 4.6614L12.6666 2.39673C12.9215 2.14599 13.2652 2.00612 13.6227 2.00758C13.9802 2.00904 14.3227 2.15172 14.5755 2.40454C14.8283 2.65735 14.971 2.99983 14.9725 3.35736C14.9739 3.71489 14.8341 4.05852 14.5833 4.3134L12.3186 6.5774L13.544 12.6741C13.7006 13.4541 12.188 14.5407 11.7853 13.5074L9.99198 8.90473L7.66331 11.2334C7.77665 12.5941 7.80131 13.0467 6.84731 14.0001L5.39731 11.5827L2.97998 10.1327C3.93331 9.17873 4.38598 9.20273 5.74665 9.31673L8.07531 6.98873L3.47265 5.19473C2.43931 4.79206 3.52598 3.27873 4.30598 3.43606L10.4026 4.6614Z" stroke="#FFEAEA" stroke-width="1.5" stroke-linecap="round" stroke-linejoin="round"/>
</svg>
