<svg width="14" height="14" viewBox="0 0 14 14" fill="none" xmlns="http://www.w3.org/2000/svg">
<path d="M8.40265 3.6614L10.6666 1.39673C10.9215 1.14599 11.2652 1.00612 11.6227 1.00758C11.9802 1.00904 12.3227 1.15172 12.5755 1.40454C12.8283 1.65735 12.971 1.99983 12.9725 2.35736C12.9739 2.71489 12.8341 3.05852 12.5833 3.3134L10.3186 5.5774L11.544 11.6741C11.7006 12.4541 10.188 13.5407 9.78531 12.5074L7.99198 7.90473L5.66331 10.2334C5.77665 11.5941 5.80131 12.0467 4.84731 13.0001L3.39731 10.5827L0.97998 9.13273C1.93331 8.17873 2.38598 8.20273 3.74665 8.31673L6.07531 5.98873L1.47265 4.19473C0.439314 3.79206 1.52598 2.27873 2.30598 2.43606L8.40265 3.6614Z" stroke="#FFEAEA" stroke-width="1.5" stroke-linecap="round" stroke-linejoin="round"/>
</svg>
