<svg width="18" height="19" viewBox="0 0 18 19" fill="none" xmlns="http://www.w3.org/2000/svg">
<path fill-rule="evenodd" clip-rule="evenodd" d="M1.87119 2.32392H4.55593V0.878738C4.55593 0.669435 4.72881 0.5 4.94237 0.5H5.80678C6.02034 0.5 6.19322 0.669435 6.19322 0.878738V2.32392H11.8068V0.878738C11.8068 0.669435 11.9797 0.5 12.1932 0.5H13.0576C13.2712 0.5 13.4441 0.669435 13.4441 0.878738V2.32392H16.1288C17.1559 2.32392 18 3.15116 18 4.15781V5.33389H0V4.15781C0 3.1412 0.844068 2.32392 1.87119 2.32392ZM17.9593 6.6196V16.6661C17.9593 17.6728 17.1153 18.5 16.0881 18.5H1.87119C0.844068 18.5 0 17.6728 0 16.6661V6.6196H17.9593ZM2.98983 8.81229V11.0847H5.30847V8.81229H2.98983ZM2.98983 13.5864V15.8588H5.30847V13.5864H2.98983ZM12.6508 13.5864V15.8588H14.9695V13.5864H12.6508ZM7.82034 13.5864V15.8588H10.139V13.5864H7.82034ZM12.6508 8.81229V11.0847H14.9695V8.81229H12.6508ZM7.82034 8.81229V11.0847H10.139V8.81229H7.82034Z" fill="#515151"/>
</svg>
