<svg width="19" height="15" viewBox="0 0 19 15" fill="none" xmlns="http://www.w3.org/2000/svg">
<path d="M4.55291 9.65303C4.55291 9.65303 4.61848 9.58746 4.74962 9.45632C4.88075 9.32518 4.94632 9.07546 4.94632 8.70716C4.94632 8.33885 4.81519 8.02356 4.55291 7.76129C4.29063 7.49901 3.97534 7.36787 3.60704 7.36787C3.23873 7.36787 2.92344 7.49901 2.66117 7.76129C2.39889 8.02356 2.26775 8.33885 2.26775 8.70716C2.26775 9.07546 2.39889 9.39075 2.66117 9.65303C2.92344 9.91531 3.23873 10.0464 3.60704 10.0464C3.97534 10.0464 4.29063 9.91531 4.55291 9.65303ZM5.24766 6.02859H13.7521L13.0071 3.04031C12.996 2.99566 12.9569 2.94683 12.89 2.89382C12.823 2.84081 12.7644 2.8143 12.7142 2.8143H6.28561C6.23539 2.8143 6.17679 2.84081 6.10983 2.89382C6.04286 2.94683 6.0038 2.99566 5.99264 3.04031L5.24766 6.02859ZM16.3386 9.65303C16.3386 9.65303 16.4042 9.58746 16.5353 9.45632C16.6665 9.32518 16.732 9.07546 16.732 8.70716C16.732 8.33885 16.6009 8.02356 16.3386 7.76129C16.0763 7.49901 15.7611 7.36787 15.3928 7.36787C15.0244 7.36787 14.7092 7.49901 14.4469 7.76129C14.1846 8.02356 14.0535 8.33885 14.0535 8.70716C14.0535 9.07546 14.1846 9.39075 14.4469 9.65303C14.7092 9.91531 15.0244 10.0464 15.3928 10.0464C15.7611 10.0464 16.0763 9.91531 16.3386 9.65303ZM18.0713 7.90359V11.1179C18.0713 11.196 18.0462 11.2602 17.996 11.3104C17.9458 11.3606 17.8816 11.3857 17.8035 11.3857H16.9999V12.4572C16.9999 12.9036 16.8436 13.2831 16.5311 13.5956C16.2186 13.9081 15.8392 14.0643 15.3928 14.0643C14.9463 14.0643 14.5669 13.9081 14.2544 13.5956C13.9419 13.2831 13.7856 12.9036 13.7856 12.4572V11.3857H5.21418V12.4572C5.21418 12.9036 5.05793 13.2831 4.74543 13.5956C4.43293 13.9081 4.05347 14.0643 3.60704 14.0643C3.16061 14.0643 2.78115 13.9081 2.46865 13.5956C2.15615 13.2831 1.9999 12.9036 1.9999 12.4572V11.3857H1.19632C1.1182 11.3857 1.05402 11.3606 1.0038 11.3104C0.953578 11.2602 0.928467 11.196 0.928467 11.1179V7.90359C0.928467 7.38461 1.11122 6.94237 1.47674 6.57686C1.84225 6.21134 2.28449 6.02859 2.80347 6.02859H3.03784L3.91675 2.52133C4.0451 1.99678 4.33527 1.55733 4.78728 1.20297C5.23929 0.84862 5.73873 0.671444 6.28561 0.671444H12.7142C13.2611 0.671444 13.7605 0.84862 14.2125 1.20297C14.6645 1.55733 14.9547 1.99678 15.083 2.52133L15.9619 6.02859H16.1963C16.7153 6.02859 17.1575 6.21134 17.5231 6.57686C17.8886 6.94237 18.0713 7.38461 18.0713 7.90359Z" fill="white"/>
</svg>
