<svg width="18" height="19" viewBox="0 0 18 19" fill="none" xmlns="http://www.w3.org/2000/svg">
<path d="M9 0.5C4.02549 0.5 0 4.52549 0 9.5C0 14.4745 4.02549 18.5 9 18.5C13.9641 18.5 18 14.4641 18 9.5C18 4.52549 13.9745 0.5 9 0.5ZM12.2955 13.2126C11.9409 13.5776 11.3673 13.5881 11.0023 13.2335L8.25956 10.4907C8.0927 10.3239 7.98841 10.084 7.98841 9.84415V4.36906C7.98841 3.86848 8.39513 3.45133 8.90614 3.45133C9.41715 3.45133 9.82387 3.85805 9.82387 4.36906V9.46871L12.2955 11.9403C12.6396 12.2949 12.6396 12.8581 12.2955 13.2126Z" fill="#515151"/>
</svg>
