<svg width="15" height="12" viewBox="0 0 15 12" fill="none" xmlns="http://www.w3.org/2000/svg">
<path d="M4.47021 6.16663C4.07247 6.16663 3.69096 6.32488 3.40967 6.60608C3.12836 6.88738 2.97021 7.2688 2.97021 7.66663C2.97021 8.06445 3.12836 8.44587 3.40967 8.72717C3.69096 9.00838 4.07247 9.16663 4.47021 9.16663C4.86792 9.16654 5.24953 9.0084 5.53076 8.72717C5.81196 8.44588 5.97021 8.06437 5.97021 7.66663C5.97021 7.26888 5.81196 6.88737 5.53076 6.60608C5.24953 6.32485 4.86792 6.16671 4.47021 6.16663ZM10.4702 6.16663C10.0725 6.16663 9.69096 6.32488 9.40967 6.60608C9.12836 6.88738 8.97021 7.2688 8.97021 7.66663C8.97021 8.06445 9.12836 8.44587 9.40967 8.72717C9.69096 9.00838 10.0725 9.16663 10.4702 9.16663C10.8679 9.16654 11.2495 9.0084 11.5308 8.72717C11.812 8.44588 11.9702 8.06437 11.9702 7.66663C11.9702 7.26888 11.812 6.88737 11.5308 6.60608C11.2495 6.32485 10.8679 6.16671 10.4702 6.16663ZM4.96045 1.49963C4.76854 1.49963 4.57988 1.54782 4.41064 1.63831C4.24132 1.72887 4.09632 1.85943 3.98975 2.01917L3.98096 2.03284L3.97217 2.04749L3.93115 2.11975L3.92334 2.13245L3.91748 2.14514L3.0708 3.83655L2.8042 4.36877L3.37451 4.53967C4.43798 4.85842 5.87878 5.16663 7.47021 5.16663C8.95625 5.16659 10.3093 4.8979 11.3462 4.60315L11.3491 4.60217L11.561 4.54065L12.1372 4.37366L11.8687 3.83655L11.022 2.14514C10.9361 1.97346 10.8095 1.82537 10.6528 1.71448C10.4963 1.60369 10.3148 1.53333 10.1245 1.5094L10.1089 1.50745L10.0942 1.50647L10.0122 1.50061L9.99658 1.49963H4.96045ZM1.97021 9.9342L1.80322 9.78479C1.4953 9.50887 1.30322 9.11034 1.30322 8.66663V6.98108L1.31299 6.80823C1.33312 6.63564 1.38332 6.46736 1.46143 6.31116L2.09717 5.0387L2.33545 4.56116L1.84326 4.35413C1.69294 4.291 1.54465 4.22269 1.39795 4.15002C1.35853 4.12928 1.32817 4.09465 1.31396 4.05237C1.29978 4.01004 1.30281 3.96381 1.32178 3.92346C1.33148 3.90461 1.34482 3.88757 1.36084 3.87366C1.37721 3.8595 1.396 3.84834 1.4165 3.84143C1.43727 3.8345 1.46009 3.83207 1.48193 3.83362C1.50363 3.83521 1.52497 3.84049 1.54443 3.85022L1.54639 3.85217C1.71465 3.93512 1.88595 4.01197 2.05908 4.08264L2.48779 4.25745L2.69482 3.84338L3.61865 1.9967L3.61963 1.99573C3.74416 1.74675 3.93558 1.53764 4.17236 1.39124C4.35011 1.28133 4.54794 1.20998 4.75342 1.18127L4.96045 1.16663H9.979C10.2575 1.16664 10.5311 1.24384 10.7681 1.39026C11.0049 1.53667 11.1962 1.74667 11.3208 1.99573L12.2446 3.84338L12.4526 4.25745L12.8813 4.08167C13.0543 4.01077 13.2247 3.93445 13.3921 3.85217L13.395 3.85022C13.4346 3.83044 13.4809 3.82741 13.5229 3.84143C13.5649 3.85547 13.5999 3.88584 13.6196 3.92542C13.6393 3.96484 13.6422 4.01056 13.6284 4.05237C13.6144 4.09437 13.5831 4.12927 13.5435 4.14905C13.3939 4.2154 13.2434 4.28057 13.0923 4.34338L12.5981 4.54846L12.8374 5.02795L13.478 6.31018C13.5823 6.51866 13.6363 6.74895 13.6362 6.98206V8.66663C13.6362 8.87766 13.5915 9.08628 13.5054 9.27893C13.4192 9.47152 13.2935 9.64413 13.1362 9.78479L12.9702 9.93323V10.9996C12.9702 11.1321 12.9173 11.2594 12.8237 11.3531C12.73 11.4468 12.6027 11.4995 12.4702 11.4996C12.3376 11.4996 12.2105 11.4469 12.1167 11.3531C12.0229 11.2594 11.9702 11.1322 11.9702 10.9996V10.1666H2.97021V10.9996C2.97021 11.1321 2.9173 11.2594 2.82373 11.3531C2.73004 11.4468 2.6027 11.4995 2.47021 11.4996C2.33761 11.4996 2.21047 11.4469 2.1167 11.3531C2.02293 11.2594 1.97021 11.1322 1.97021 10.9996V9.9342Z" stroke="white"/>
</svg>
