<svg width="28" height="24" viewBox="0 0 28 24" fill="none" xmlns="http://www.w3.org/2000/svg">
<path d="M11.6204 19.1031C11.3081 17.311 10.7875 15.4594 10.0588 13.5483H10.0365L10.0142 13.5594C9.89521 13.6041 9.73534 13.6654 9.53456 13.7435C9.33378 13.8216 8.95826 14.0037 8.40798 14.29C7.85771 14.5763 7.34833 14.8812 6.87986 15.2047C6.41138 15.5282 5.92431 15.9539 5.41866 16.4818C4.913 17.0098 4.53004 17.5601 4.26977 18.1327L4.10246 18.01C5.47071 19.1254 7.02486 19.6831 8.76492 19.6831C9.74649 19.6831 10.6983 19.4898 11.6204 19.1031ZM9.55687 12.3325C9.40071 11.9681 9.20365 11.5554 8.96569 11.0944C6.65306 11.7859 4.15079 12.1317 1.45891 12.1317C1.45148 12.1838 1.44776 12.2618 1.44776 12.3659C1.44776 13.288 1.61135 14.1673 1.93854 15.0039C2.26573 15.8405 2.72677 16.5897 3.32166 17.2515C3.69347 16.5897 4.15265 15.9706 4.69921 15.3943C5.24577 14.818 5.77559 14.3551 6.28868 14.0056C6.80178 13.6561 7.28699 13.3549 7.74431 13.1021C8.20163 12.8493 8.57158 12.6708 8.85415 12.5667L9.26686 12.4217C9.2966 12.4143 9.34494 12.4013 9.41186 12.3827C9.47879 12.3641 9.52712 12.3474 9.55687 12.3325ZM8.36337 9.96778C7.47103 8.38389 6.56382 6.97846 5.64174 5.75149C4.61555 6.23484 3.74552 6.9264 3.03166 7.82618C2.31779 8.72595 1.84187 9.73726 1.60392 10.8601C3.84963 10.8601 6.10278 10.5627 8.36337 9.96778ZM15.9928 13.526C14.4313 13.0798 12.9106 12.972 11.4308 13.2025C12.0777 14.9797 12.5536 16.7235 12.8585 18.4338C13.6839 17.8761 14.3718 17.1715 14.922 16.3201C15.4723 15.4687 15.8293 14.5373 15.9928 13.526ZM13.5947 6.87807C12.219 5.65854 10.6091 5.04878 8.76492 5.04878C8.19977 5.04878 7.62347 5.11942 7.03602 5.26071C8.01015 6.52485 8.9248 7.94516 9.77995 9.52162C10.293 9.32828 10.7764 9.10333 11.23 8.84679C11.6836 8.59024 12.0424 8.36158 12.3064 8.1608C12.5704 7.96003 12.8139 7.7481 13.037 7.52501C13.2601 7.30193 13.3995 7.15135 13.4553 7.07327C13.511 6.99519 13.5575 6.93012 13.5947 6.87807ZM16.0821 12.2879C16.0598 10.5627 15.5058 9.03827 14.4201 7.71463L14.4089 7.72579C14.342 7.81502 14.2714 7.90612 14.197 7.99907C14.1227 8.09202 13.9609 8.25747 13.7118 8.49543C13.4627 8.73339 13.1987 8.95833 12.9199 9.17026C12.641 9.38219 12.2692 9.62386 11.8044 9.89528C11.3397 10.1667 10.8508 10.4065 10.3377 10.6147C10.5236 11.0088 10.6872 11.3621 10.8284 11.6744C10.8433 11.719 10.8675 11.7841 10.901 11.8696C10.9344 11.9551 10.9623 12.0164 10.9846 12.0536C11.2523 12.0164 11.5293 11.9904 11.8156 11.9755C12.1019 11.9607 12.3752 11.9532 12.6354 11.9532C12.8957 11.9532 13.1522 11.9588 13.4051 11.97C13.6579 11.9811 13.8959 11.996 14.1189 12.0146C14.342 12.0332 14.5521 12.0536 14.7492 12.0759C14.9462 12.0982 15.1247 12.1224 15.2846 12.1484C15.4444 12.1745 15.5801 12.1968 15.6917 12.2154C15.8032 12.2339 15.8962 12.2507 15.9705 12.2656L16.0821 12.2879ZM16.1825 8.06599C16.1825 8.06599 16.3739 8.39411 16.7569 9.05035C17.1399 9.70659 17.3314 10.8118 17.3314 12.3659C17.3314 13.9201 16.9484 15.3534 16.1825 16.6659C15.4165 17.9784 14.3773 19.0176 13.0649 19.7835C11.7524 20.5494 10.3191 20.9324 8.76492 20.9324C7.21077 20.9324 5.77745 20.5494 4.46497 19.7835C3.15249 19.0176 2.11329 17.9784 1.34737 16.6659C0.581448 15.3534 0.198486 13.9201 0.198486 12.3659C0.198486 10.8118 0.581448 9.37847 1.34737 8.06599C2.11329 6.75351 3.15249 5.71431 4.46497 4.94839C5.77745 4.18247 7.21077 3.79951 8.76492 3.79951C10.3191 3.79951 11.7524 4.18247 13.0649 4.94839C14.3773 5.71431 15.4165 6.75351 16.1825 8.06599Z" fill="#BBBBBB"/>
</svg>
