<svg width="19" height="14" viewBox="0 0 19 14" fill="none" xmlns="http://www.w3.org/2000/svg">
<path d="M9.66992 10.5027C9.13194 10.5027 8.68362 10.3284 8.22409 10.1541L0.669922 5.6V11.3743C0.669922 12.8669 1.83555 14 3.37104 14H15.9688C17.5043 14 18.6699 12.8669 18.6699 11.3743V5.6L11.1045 10.1541C10.6562 10.3284 10.2079 10.5027 9.65871 10.5027H9.66992ZM15.9688 0H3.37104C1.83555 0 0.669922 1.13307 0.669922 2.62568V3.58444L9.2216 8.66148C9.49059 8.8358 9.84925 8.8358 10.1182 8.66148L18.6699 3.58444V2.62568C18.6699 1.13307 17.5043 0 15.9688 0Z" fill="#515151"/>
</svg>
