<svg width="16" height="15" viewBox="0 0 16 15" fill="none" xmlns="http://www.w3.org/2000/svg">
<path d="M11.0693 2.83337L11.6465 5.71619V6.23181L12.002 6.33923C13.7249 6.8579 14.9795 8.44843 14.9795 10.3334C14.9795 12.6371 13.1172 14.5002 10.8135 14.5004C8.71412 14.5004 6.98624 12.9476 6.69434 10.9281L6.63281 10.5004H1.31348V6.50037H0.646484V5.71619L1.22363 2.83337H11.0693ZM10.8135 6.50037C8.69733 6.50037 6.97949 8.21723 6.97949 10.3334C6.97949 12.4495 8.69733 14.1664 10.8135 14.1664C12.9295 14.1662 14.6465 12.4494 14.6465 10.3334C14.6465 8.21734 12.9295 6.50054 10.8135 6.50037ZM1.64648 10.1664H6.64648V6.50037H1.64648V10.1664ZM10.9795 0.833374V1.16638H1.31348V0.833374H10.9795Z" stroke="white"/>
</svg>
