<svg width="29" height="24" viewBox="0 0 29 24" fill="none" xmlns="http://www.w3.org/2000/svg">
<path d="M8.5474 11.2441C8.5474 11.512 8.66645 11.7743 8.90454 12.031C9.14264 12.2877 9.43095 12.5406 9.7695 12.7899C10.108 13.0392 10.4447 13.3126 10.7795 13.6102C11.1144 13.9078 11.4008 14.2947 11.6389 14.7709C11.877 15.2471 11.9961 15.7754 11.9961 16.3557C11.9961 17.0254 11.8175 17.669 11.4603 18.2866C10.9246 19.1943 10.1397 19.8621 9.10543 20.2899C8.07121 20.7177 6.96258 20.9316 5.77954 20.9316C4.7974 20.9316 3.88036 20.7773 3.02842 20.4685C2.17649 20.1597 1.53847 19.6482 1.11436 18.9339C0.839065 18.4874 0.701416 18.0001 0.701416 17.4718C0.701416 16.8691 0.866967 16.3111 1.19807 15.7977C1.52917 15.2843 1.97002 14.8565 2.52061 14.5142C3.49531 13.9041 4.99829 13.5321 7.02954 13.3982C6.79145 13.0857 6.61473 12.8104 6.49941 12.5723C6.38408 12.3342 6.32642 12.0626 6.32642 11.7575C6.32642 11.4897 6.40454 11.1735 6.56079 10.8089C6.21853 10.8386 5.96555 10.8535 5.80186 10.8535C4.70067 10.8535 3.77247 10.4945 3.01726 9.77651C2.26206 9.0585 1.88445 8.1489 1.88445 7.04771C1.88445 6.43759 2.01838 5.84608 2.28624 5.27316C2.55409 4.70024 2.9224 4.21289 3.39115 3.8111C3.96406 3.32003 4.64301 2.95545 5.42798 2.71735C6.21295 2.47926 7.0221 2.36021 7.85543 2.36021H12.5206L10.9804 3.34235H9.51838C10.069 3.8111 10.4856 4.3059 10.7684 4.82673C11.0511 5.34756 11.1925 5.9428 11.1925 6.61244C11.1925 7.14816 11.1013 7.62993 10.9191 8.05776C10.7368 8.48558 10.5173 8.83157 10.2606 9.0957C10.0039 9.35984 9.74531 9.60166 9.4849 9.82115C9.22448 10.0406 9.00313 10.2694 8.82084 10.5075C8.63854 10.7456 8.5474 10.9912 8.5474 11.2441ZM6.91793 10.1727C7.20067 10.1727 7.49085 10.1113 7.78847 9.98856C8.08609 9.86579 8.33162 9.70396 8.52508 9.50307C8.91942 9.07896 9.11659 8.48744 9.11659 7.72852C9.11659 7.29697 9.05335 6.83194 8.92686 6.33343C8.80037 5.83491 8.61994 5.35314 8.38557 4.88811C8.15119 4.42308 7.83683 4.03804 7.44249 3.73298C7.04814 3.42792 6.61287 3.27539 6.13668 3.27539C5.82418 3.27539 5.51726 3.34793 5.21593 3.49302C4.91459 3.63811 4.67091 3.83343 4.4849 4.07896C4.1352 4.51795 3.96034 5.11319 3.96034 5.86468C3.96034 6.20694 3.99755 6.56966 4.07195 6.95285C4.14636 7.33603 4.26354 7.71921 4.42351 8.1024C4.58348 8.48558 4.77694 8.82971 5.00387 9.13477C5.23081 9.43983 5.50982 9.68908 5.84093 9.88253C6.17203 10.076 6.53103 10.1727 6.91793 10.1727ZM6.94026 19.916C7.3718 19.916 7.78661 19.8677 8.18468 19.7709C8.58274 19.6742 8.95104 19.5291 9.28959 19.3357C9.62813 19.1422 9.8997 18.8706 10.1043 18.5209C10.3089 18.1712 10.4112 17.7657 10.4112 17.3044C10.4112 17.1184 10.3852 16.9361 10.3331 16.7575C10.281 16.579 10.2271 16.4227 10.1713 16.2888C10.1155 16.1549 10.015 16.0005 9.86994 15.8256C9.72485 15.6508 9.61511 15.5206 9.5407 15.435C9.4663 15.3494 9.32307 15.2211 9.11101 15.0499C8.89896 14.8788 8.76317 14.7709 8.70365 14.7263C8.64412 14.6816 8.48973 14.57 8.24048 14.3915C7.99122 14.2129 7.85543 14.1162 7.83311 14.1013C7.71407 14.0864 7.53549 14.079 7.2974 14.079C6.90305 14.079 6.51243 14.105 6.12552 14.1571C5.73862 14.2092 5.33869 14.3022 4.92575 14.4361C4.5128 14.57 4.15194 14.7412 3.84316 14.9495C3.53438 15.1578 3.27954 15.435 3.07865 15.781C2.87776 16.127 2.77731 16.5194 2.77731 16.9584C2.77731 17.4793 2.90752 17.9387 3.16793 18.3368C3.42835 18.7348 3.76875 19.0436 4.18914 19.2631C4.60953 19.4826 5.05223 19.6463 5.51726 19.7542C5.98229 19.8621 6.45662 19.916 6.94026 19.916ZM15.9804 10.1392H18.3577V11.3446H15.9804V13.7888H14.8086V11.3446H12.4425V10.1392H14.8086V7.71735H15.9804V10.1392Z" fill="#BBBBBB"/>
</svg>
