<svg width="28" height="24" viewBox="0 0 28 24" fill="none" xmlns="http://www.w3.org/2000/svg">
<path d="M15.5494 18.2754V11.0432H14.0427C14.1915 11.512 14.2659 11.9993 14.2659 12.5053C14.2659 13.4428 14.0278 14.3078 13.5516 15.1002C13.0754 15.8926 12.4281 16.5194 11.6097 16.9807C10.7912 17.4421 9.89836 17.6727 8.9311 17.6727C7.46533 17.6727 6.21161 17.1686 5.16994 16.1604C4.12827 15.1523 3.60744 13.9339 3.60744 12.5053C3.60744 11.9993 3.68184 11.512 3.83065 11.0432H2.25699V18.2754C2.25699 18.4688 2.3221 18.6307 2.45231 18.7609C2.58251 18.8911 2.74434 18.9562 2.9378 18.9562H14.8686C15.0546 18.9562 15.2146 18.8911 15.3485 18.7609C15.4824 18.6307 15.5494 18.4688 15.5494 18.2754ZM11.3697 14.6872C11.3697 14.6872 11.5381 14.5245 11.8747 14.1989C12.2114 13.8734 12.3798 13.2493 12.3798 12.3267C12.3798 11.4041 12.0431 10.6173 11.3697 9.96624C10.6964 9.3152 9.88348 8.98968 8.9311 8.98968C7.98616 8.98968 7.17701 9.3152 6.50364 9.96624C5.83028 10.6173 5.4936 11.4041 5.4936 12.3267C5.4936 13.2493 5.83028 14.0362 6.50364 14.6872C7.17701 15.3383 7.98616 15.6638 8.9311 15.6638C9.88348 15.6638 10.6964 15.3383 11.3697 14.6872ZM15.5494 8.30887V6.46736C15.5494 6.25902 15.475 6.07859 15.3262 5.92606C15.1774 5.77353 14.9951 5.69727 14.7793 5.69727H12.8373C12.6216 5.69727 12.4393 5.77353 12.2905 5.92606C12.1417 6.07859 12.0673 6.25902 12.0673 6.46736V8.30887C12.0673 8.52465 12.1417 8.70694 12.2905 8.85575C12.4393 9.00456 12.6216 9.07896 12.8373 9.07896H14.7793C14.9951 9.07896 15.1774 9.00456 15.3262 8.85575C15.475 8.70694 15.5494 8.52465 15.5494 8.30887ZM17.4914 5.98744V18.733C17.4914 19.3357 17.2756 19.8528 16.844 20.2843C16.4125 20.7159 15.8954 20.9316 15.2927 20.9316H2.54717C1.94449 20.9316 1.42738 20.7159 0.995832 20.2843C0.564285 19.8528 0.348511 19.3357 0.348511 18.733V5.98744C0.348511 5.38477 0.564285 4.86765 0.995832 4.43611C1.42738 4.00456 1.94449 3.78878 2.54717 3.78878H15.2927C15.8954 3.78878 16.4125 4.00456 16.844 4.43611C17.2756 4.86765 17.4914 5.38477 17.4914 5.98744Z" fill="#BBBBBB"/>
</svg>
