<svg width="14" height="19" viewBox="0 0 14 19" fill="none" xmlns="http://www.w3.org/2000/svg">
<path d="M4.64468 2.02344C4.64468 1.82961 4.80099 1.67188 4.99307 1.67188H9.00596C9.19808 1.67188 9.35435 1.82961 9.35435 2.02344V4.11777H10.5156V2.02344C10.5156 1.1834 9.83841 0.5 9.00596 0.5H4.99307C4.16062 0.5 3.4834 1.1834 3.4834 2.02344V4.11777H4.64468V2.02344Z" fill="#515151"/>
<path d="M12.6452 5.28967H1.35484C0.60778 5.28967 0 5.90299 0 6.65686V15.961C0 16.6486 0.505626 17.219 1.16129 17.3141V17.914C1.16129 18.2376 1.42126 18.5 1.74194 18.5C2.06261 18.5 2.32258 18.2376 2.32258 17.914V17.3282H11.6774V17.9141C11.6774 18.2377 11.9374 18.5 12.2581 18.5C12.5787 18.5 12.8387 18.2377 12.8387 17.9141V17.3141C13.4944 17.219 14 16.6486 14 15.9611V6.65686C14 5.90299 13.3922 5.28967 12.6452 5.28967ZM3.48387 15.1798C3.48387 15.5034 3.2239 15.7657 2.90323 15.7657C2.58255 15.7657 2.32258 15.5034 2.32258 15.1798V7.43812C2.32258 7.11452 2.58255 6.85218 2.90323 6.85218C3.2239 6.85218 3.48387 7.11452 3.48387 7.43812V15.1798ZM11.0968 15.7657C10.7761 15.7657 10.5161 15.5034 10.5161 15.1798V7.43812C10.5161 7.11452 10.7761 6.85218 11.0968 6.85218C11.4174 6.85218 11.6774 7.11452 11.6774 7.43812V15.1798C11.6774 15.5034 11.4174 15.7657 11.0968 15.7657Z" fill="#515151"/>
</svg>
