<svg width="20" height="24" viewBox="0 0 20 24" fill="none" xmlns="http://www.w3.org/2000/svg">
<path d="M13.2352 14.8167C11.3246 14.8167 9.7666 13.2417 9.7666 11.3083V10.4C9.7666 8.44165 11.3082 6.84998 13.2106 6.84998C14.1454 6.84998 15.0065 7.21665 15.6625 7.87498C16.3103 8.53331 16.6711 9.41665 16.6711 10.3583V11.3167C16.6711 13.2417 15.1295 14.8167 13.2352 14.825V14.8167ZM13.2188 8.17498C12.038 8.17498 11.0868 9.17498 11.0868 10.4V11.3083C11.0868 12.5083 12.0462 13.4833 13.227 13.4833C14.4078 13.4833 15.3673 12.5 15.3673 11.3083V10.35C15.3673 9.76665 15.1459 9.22498 14.744 8.80831C14.3422 8.39998 13.801 8.17498 13.227 8.17498H13.2188Z" fill="black"/>
<path d="M16.6052 23.5C16.2444 23.5 15.9492 23.2 15.9492 22.8333V18.75C15.9492 18.3833 16.2444 18.0833 16.6052 18.0833C16.966 18.0833 17.2612 18.3833 17.2612 18.75V22.8333C17.2612 23.2 16.966 23.5 16.6052 23.5Z" fill="black"/>
<path d="M2.73023 11.6167C2.36942 11.6167 2.07422 11.3167 2.07422 10.95V9.23335C2.07422 8.05002 3.00903 7.06669 4.15704 7.04169C4.77205 7.04169 5.30505 7.26669 5.70686 7.67502C6.10866 8.08335 6.33006 8.62502 6.33006 9.20002V10.95C6.33006 11.3167 6.03486 11.6167 5.67406 11.6167H2.73023ZM5.00985 10.2833V9.19169C5.00985 8.97502 4.92785 8.76669 4.77205 8.60835C4.61625 8.45002 4.41944 8.36669 4.21444 8.36669V8.20002L4.18164 8.36669C3.73884 8.37502 3.38623 8.76669 3.38623 9.22502V10.2833H5.01805H5.00985Z" fill="black"/>
<path d="M8.14228 23.5C8.04388 23.5 7.93728 23.475 7.84708 23.4333C7.71588 23.3667 7.61748 23.2583 7.55188 23.1333C7.50268 23.0333 7.47808 22.925 7.48628 22.825L7.52728 20.0167L6.37926 20.3833C6.03486 20.5083 5.67406 20.575 5.30505 20.575C4.64085 20.575 3.99304 20.3667 3.44363 19.9667C2.57443 19.3417 2.07422 18.3583 2.07422 17.275V10.9583C2.07422 10.5917 2.36942 10.2917 2.73023 10.2917H5.66586C6.02666 10.2917 6.32186 10.5917 6.32186 10.9583V15.525L10.7335 13.9167C11.5371 13.6333 12.3735 13.4833 13.2181 13.4833H14.2595C17.4248 13.4833 19.9996 16.1 19.9996 19.3167V22.8333C19.9996 23.2 19.7044 23.5 19.3436 23.5H8.14228ZM18.6876 22.1667V19.3167C18.6876 16.8333 16.7032 14.8167 14.2595 14.8167H13.2181C12.5211 14.8167 11.8323 14.9333 11.1845 15.1667L5.88726 17.0917C5.81346 17.1167 5.73966 17.1333 5.66586 17.1333C5.49365 17.1333 5.32965 17.0667 5.20665 16.9333C5.08365 16.8083 5.00985 16.6333 5.00985 16.4583V11.6083H3.37803V17.2583C3.37803 17.9083 3.67324 18.4917 4.19804 18.8667C4.52605 19.1083 4.91145 19.2333 5.30505 19.2333C5.52645 19.2333 5.74786 19.1917 5.96106 19.1167L7.99468 18.4583C8.06028 18.4417 8.12588 18.425 8.19148 18.425C8.38008 18.425 8.56049 18.5083 8.68349 18.65C8.79009 18.775 8.84749 18.9333 8.84749 19.1L8.80649 22.1583H18.6958L18.6876 22.1667Z" fill="black"/>
<path d="M12.3333 10.95C11.9889 10.95 11.6691 10.8917 11.3493 10.7667L10.7999 10.5583C10.7261 10.5333 10.6769 10.5083 10.6359 10.4917L9.50427 10.025C9.46327 10.0083 9.43046 9.99167 9.38946 9.96667C8.69246 9.49167 8.29065 8.825 8.21685 7.99167C8.13485 7.175 8.39725 6.425 8.97126 5.84167C9.13526 5.66667 9.33206 5.525 9.57807 5.39167C9.57807 5.39167 11.4969 4.325 11.9315 4.09167C12.3415 3.86667 12.7597 3.75 13.1861 3.75C13.6125 3.75 14.0307 3.85833 14.4325 4.08333C14.8589 4.31667 15.8266 4.85 15.8266 4.85L16.8844 5.44167C17.5486 5.80833 17.9832 6.36667 18.1718 7.08333C18.4752 8.21667 18.0078 9.43333 17.0484 10.0417C16.9254 10.1 15.5068 10.7083 15.4166 10.75C15.0886 10.8917 14.7441 10.9583 14.3751 10.9583H12.3415L12.3333 10.95ZM13.1697 5.08333C12.9647 5.08333 12.7597 5.14167 12.5383 5.25833C12.0299 5.53333 10.1931 6.55833 10.1931 6.55833C10.0701 6.625 9.97167 6.7 9.88967 6.775C9.59447 7.08333 9.47147 7.43333 9.51247 7.86667C9.55347 8.29167 9.72567 8.59167 10.0783 8.83333L11.0541 9.24167C11.0541 9.24167 11.6281 9.45 11.8085 9.51667C11.9807 9.58333 12.1529 9.60833 12.3333 9.60833H14.3669C14.5637 9.60833 14.7359 9.575 14.9082 9.5C15.0148 9.45833 16.3678 8.875 16.4252 8.85C16.827 8.59167 17.032 7.96667 16.8844 7.41667C16.786 7.04167 16.5892 6.79167 16.2366 6.6C16.2366 6.6 14.2521 5.5 13.7929 5.24167C13.5797 5.125 13.3747 5.06667 13.1697 5.06667V5.08333Z" fill="black"/>
<path d="M4.16577 8.36668C3.80497 8.36668 3.50977 8.06668 3.50977 7.70001V5.65001C3.50977 5.28334 3.80497 4.98334 4.16577 4.98334C4.52658 4.98334 4.82178 5.28334 4.82178 5.65001V7.70001C4.82178 8.06668 4.52658 8.36668 4.16577 8.36668Z" fill="black"/>
<path d="M0.656007 6.31667C0.295203 6.31667 0 6.01667 0 5.65V1.16667C0 0.8 0.295203 0.5 0.656007 0.5H7.66708C8.02788 0.5 8.32308 0.8 8.32308 1.16667V5.65C8.32308 6.01667 8.02788 6.31667 7.66708 6.31667H0.656007ZM7.01107 4.98333V1.83333H1.31201V4.98333H7.01107Z" fill="black"/>
</svg>
