<svg width="16" height="16" viewBox="0 0 16 16" fill="none" xmlns="http://www.w3.org/2000/svg">
<path d="M4.24618 10.4171L3.01875 14.7211M1.32275 14.2365L4.71361 15.2034M2.4599 6.86969L4.67133 1.00684L8.84618 2.19541L7.63247 8.34398C7.56145 8.71138 7.41483 9.06 7.2019 9.36772C6.98897 9.67543 6.71439 9.93551 6.39559 10.1315C6.07678 10.3274 5.72073 10.4549 5.35002 10.5059C4.97931 10.5569 4.60204 10.5303 4.24217 10.4277C3.8823 10.3251 3.54769 10.1489 3.25958 9.9101C2.97146 9.67132 2.73614 9.37524 2.56854 9.04067C2.40095 8.7061 2.30475 8.34033 2.28604 7.9666C2.26734 7.59287 2.32654 7.21933 2.4599 6.86969Z" stroke="white" stroke-linecap="round" stroke-linejoin="round"/>
<path d="M3.56738 3.9292L8.2371 5.27206" stroke="white"/>
<path d="M9.76025 10.2434C10.246 10.4831 10.7926 10.571 11.329 10.4959C11.8654 10.4208 12.3668 10.186 12.768 9.82215C13.1693 9.45828 13.4517 8.98213 13.5788 8.45558C13.7058 7.92904 13.6714 7.37647 13.4803 6.86969L11.2665 1.00684L10.6083 1.19312M11.6928 10.4171L12.9203 14.7211M14.6163 14.2365L11.2254 15.2034M12.3717 3.94284L10.4643 4.49141" stroke="white" stroke-linecap="round" stroke-linejoin="round"/>
</svg>
