<svg width="18" height="13" viewBox="0 0 18 13" fill="none" xmlns="http://www.w3.org/2000/svg">
<path d="M18 11.75C18 11.9489 17.9138 12.1397 17.7604 12.2803C17.6069 12.421 17.3988 12.5 17.1818 12.5H7.36364C7.14664 12.5 6.93853 12.421 6.7851 12.2803C6.63166 12.1397 6.54545 11.9489 6.54545 11.75C6.54545 10.5565 7.06266 9.41193 7.98329 8.56802C8.90393 7.72411 10.1526 7.25 11.4545 7.25H13.0909C14.3929 7.25 15.6415 7.72411 16.5622 8.56802C17.4828 9.41193 18 10.5565 18 11.75ZM12.2727 0.5C11.6254 0.5 10.9927 0.675947 10.4545 1.00559C9.9163 1.33523 9.49683 1.80377 9.24912 2.35195C9.00142 2.90013 8.93661 3.50333 9.06288 4.08527C9.18916 4.66721 9.50086 5.20176 9.95856 5.62132C10.4163 6.04088 10.9994 6.3266 11.6342 6.44236C12.2691 6.55811 12.9271 6.4987 13.5251 6.27164C14.1232 6.04458 14.6343 5.66006 14.9939 5.16671C15.3535 4.67336 15.5455 4.09334 15.5455 3.5C15.5455 2.70435 15.2007 1.94129 14.5869 1.37868C13.9731 0.81607 13.1407 0.5 12.2727 0.5ZM4.90909 0.5C4.26181 0.5 3.62906 0.675947 3.09086 1.00559C2.55266 1.33523 2.13319 1.80377 1.88549 2.35195C1.63778 2.90013 1.57297 3.50333 1.69925 4.08527C1.82553 4.66721 2.13722 5.20176 2.59492 5.62132C3.05262 6.04088 3.63577 6.3266 4.27061 6.44236C4.90546 6.55811 5.5635 6.4987 6.16151 6.27164C6.75952 6.04458 7.27065 5.66006 7.63026 5.16671C7.98988 4.67336 8.18182 4.09334 8.18182 3.5C8.18182 2.70435 7.83701 1.94129 7.22326 1.37868C6.6095 0.81607 5.77707 0.5 4.90909 0.5ZM4.90909 11.75C4.90787 10.9622 5.07719 10.182 5.40724 9.45464C5.73728 8.72726 6.22149 8.06713 6.83182 7.5125C6.33235 7.33964 5.80298 7.25072 5.26909 7.25H4.54909C3.34326 7.25198 2.18744 7.69196 1.33479 8.47355C0.482135 9.25515 0.00216293 10.3147 0 11.42V11.75C0 11.9489 0.086201 12.1397 0.23964 12.2803C0.393079 12.421 0.601187 12.5 0.818182 12.5H5.05636C4.96111 12.2595 4.9113 12.0059 4.90909 11.75Z" fill="#515151"/>
</svg>
