<svg width="18" height="21" viewBox="0 0 18 21" fill="none" xmlns="http://www.w3.org/2000/svg">
<path d="M16.7625 6.06599C16.7625 6.06599 16.954 6.39411 17.337 7.05035C17.7199 7.70659 17.9114 8.81179 17.9114 10.3659C17.9114 11.9201 17.5285 13.3534 16.7625 14.6659C15.9966 15.9784 14.9574 17.0176 13.6449 17.7835C12.3325 18.5494 10.8991 18.9324 9.345 18.9324C8.51959 18.9324 7.70905 18.8134 6.91338 18.5754C7.35211 17.8839 7.64212 17.2741 7.78341 16.7461C7.85033 16.4933 8.05111 15.7088 8.38574 14.3926C8.53446 14.6826 8.80588 14.9336 9.19999 15.1455C9.59411 15.3574 10.018 15.4634 10.4716 15.4634C11.3713 15.4634 12.1744 15.2087 12.8809 14.6994C13.5873 14.19 14.1339 13.4891 14.5206 12.5968C14.9072 11.7044 15.1006 10.7006 15.1006 9.58515C15.1006 8.73743 14.8793 7.94176 14.4369 7.19814C13.9944 6.45453 13.3531 5.84849 12.5128 5.38001C11.6725 4.91153 10.7244 4.67729 9.66847 4.67729C8.88767 4.67729 8.15893 4.78512 7.48224 5.00077C6.80556 5.21641 6.23111 5.5027 5.75892 5.85964C5.28672 6.21657 4.88145 6.62742 4.54311 7.09218C4.20477 7.55694 3.95566 8.03843 3.79578 8.53665C3.6359 9.03487 3.55596 9.53309 3.55596 10.0313C3.55596 10.8047 3.70469 11.4851 4.00213 12.0725C4.29958 12.66 4.73459 13.0727 5.30717 13.3107C5.53026 13.3999 5.67154 13.3255 5.73103 13.0876C5.74591 13.0355 5.77565 12.9203 5.82027 12.7418C5.86488 12.5633 5.89463 12.4518 5.9095 12.4072C5.95412 12.2361 5.91322 12.0763 5.7868 11.9275C5.40756 11.4739 5.21794 10.9125 5.21794 10.2432C5.21794 9.12039 5.60648 8.15555 6.38355 7.34873C7.16063 6.54191 8.17752 6.1385 9.43423 6.1385C10.5571 6.1385 11.4327 6.44338 12.061 7.05314C12.6894 7.6629 13.0036 8.45485 13.0036 9.42899C13.0036 10.6931 12.7489 11.7677 12.2395 12.6526C11.7301 13.5375 11.0776 13.9799 10.282 13.9799C9.82835 13.9799 9.46397 13.8182 9.18884 13.4947C8.9137 13.1712 8.82819 12.7827 8.93229 12.3291C8.99178 12.0688 9.09031 11.7212 9.22788 11.2862C9.36545 10.8511 9.47699 10.4682 9.5625 10.1373C9.64802 9.80637 9.69078 9.52566 9.69078 9.29514C9.69078 8.92333 9.59039 8.61473 9.38961 8.36934C9.18884 8.12394 8.90255 8.00125 8.53074 8.00125C8.0697 8.00125 7.6793 8.21318 7.35955 8.63704C7.03979 9.0609 6.87992 9.58886 6.87992 10.2209C6.87992 10.7638 6.97287 11.2174 7.15877 11.5817L6.05451 16.2442C5.92809 16.7647 5.87976 17.4228 5.9095 18.2185C4.37766 17.5418 3.13954 16.497 2.19515 15.0842C1.25076 13.6713 0.778564 12.0986 0.778564 10.3659C0.778564 8.81179 1.16153 7.37847 1.92745 6.06599C2.69337 4.75351 3.73257 3.71431 5.04505 2.94839C6.35753 2.18247 7.79084 1.79951 9.345 1.79951C10.8991 1.79951 12.3325 2.18247 13.6449 2.94839C14.9574 3.71431 15.9966 4.75351 16.7625 6.06599Z" fill="#BBBBBB"/>
</svg>
