<svg width="17" height="16" viewBox="0 0 17 16" fill="none" xmlns="http://www.w3.org/2000/svg">
<path d="M8.5 9.5C9.56019 9.49936 10.604 9.62414 11.6318 9.87402C12.6579 10.1235 13.6707 10.4955 14.6699 10.9932V10.9941C15.0702 11.2012 15.3911 11.4997 15.6367 11.8994C15.8795 12.2946 16.0005 12.7245 16 13.1992V15.5H1V13.2002L1.00586 13.0234C1.03241 12.6172 1.15201 12.2455 1.36426 11.9004C1.60992 11.501 1.93009 11.202 2.33008 10.9941L2.3291 10.9932C3.32837 10.4941 4.34128 10.1222 5.36719 9.87402C6.39527 9.62535 7.43951 9.50067 8.5 9.5ZM8.5 0.5C9.46634 0.5 10.2814 0.838007 10.9717 1.52832C11.662 2.21863 12 3.03366 12 4C12 4.96634 11.662 5.78137 10.9717 6.47168C10.2814 7.16199 9.46634 7.5 8.5 7.5C7.53366 7.5 6.71863 7.16199 6.02832 6.47168C5.33801 5.78137 5 4.96634 5 4C5 3.03366 5.33801 2.21863 6.02832 1.52832C6.67542 0.881216 7.43215 0.54365 8.32031 0.503906L8.5 0.5Z" stroke="white"/>
</svg>
