<svg width="64" height="64" viewBox="0 0 64 64" fill="none" xmlns="http://www.w3.org/2000/svg">
<g clip-path="url(#clip0_2389_3959)">
<mask id="mask0_2389_3959" style="mask-type:luminance" maskUnits="userSpaceOnUse" x="0" y="0" width="64" height="64">
<rect width="64" height="64" fill="white"/>
</mask>
<g mask="url(#mask0_2389_3959)">
<path fill-rule="evenodd" clip-rule="evenodd" d="M32 6C17.6637 6 6 17.6637 6 32C6 46.3363 17.6637 58 32 58C46.3363 58 58 46.3363 58 32C58 17.6637 46.3363 6 32 6ZM45.5312 23.2862L28.7313 43.2862C28.5448 43.5083 28.3207 43.6816 28.0589 43.8062C27.797 43.9308 27.5212 43.9954 27.2313 44H27.1975C26.914 43.9999 26.6429 43.9421 26.384 43.8267C26.125 43.7113 25.9008 43.5482 25.7113 43.3375L18.5112 35.3375C18.1261 34.929 17.9451 34.4444 17.9681 33.8835C17.9911 33.3226 18.2113 32.8544 18.6286 32.4788C19.0459 32.1033 19.5346 31.9336 20.0948 31.9696C20.655 32.0056 21.118 32.2366 21.4837 32.6625L27.145 38.9525L42.4688 20.7137C42.8264 20.3003 43.2776 20.0719 43.8226 20.0284C44.3675 19.985 44.8492 20.1391 45.2678 20.4907C45.6864 20.8423 45.9213 21.2902 45.9726 21.8345C46.0239 22.3787 45.8768 22.8626 45.5312 23.2862Z" fill="#008492"/>
</g>
</g>
<defs>
<clipPath id="clip0_2389_3959">
<rect width="64" height="64" fill="white"/>
</clipPath>
</defs>
</svg>
