<svg width="29" height="24" viewBox="0 0 29 24" fill="none" xmlns="http://www.w3.org/2000/svg">
<path d="M18.2746 6.91364C17.7761 7.64281 17.1734 8.26409 16.4666 8.77748C16.474 8.88165 16.4777 9.0379 16.4777 9.24623C16.4777 10.2135 16.3363 11.1789 16.0536 12.1424C15.7709 13.106 15.3412 14.0305 14.7645 14.9159C14.1879 15.8013 13.5015 16.5844 12.7054 17.2652C11.9093 17.946 10.9494 18.4892 9.82593 18.8947C8.70242 19.3002 7.50078 19.5029 6.22102 19.5029C4.20465 19.5029 2.35941 18.9635 0.685303 17.8846C0.945719 17.9144 1.2359 17.9293 1.55584 17.9293C3.22995 17.9293 4.72176 17.4159 6.03128 16.3891C5.25003 16.3742 4.55063 16.1343 3.93307 15.6692C3.31551 15.2042 2.8914 14.6108 2.66075 13.8891C2.90629 13.9263 3.13322 13.9449 3.34155 13.9449C3.66149 13.9449 3.97771 13.904 4.29021 13.8221C3.45688 13.651 2.76678 13.2362 2.2199 12.5777C1.67303 11.9192 1.39959 11.1547 1.39959 10.2842V10.2395C1.90554 10.5223 2.4487 10.6748 3.02905 10.6971C2.53798 10.3697 2.14736 9.94192 1.85718 9.41364C1.567 8.88537 1.42191 8.31245 1.42191 7.69489C1.42191 7.04013 1.5856 6.43373 1.91298 5.8757C2.81328 6.98433 3.90889 7.8716 5.19981 8.53753C6.49073 9.20345 7.8728 9.57361 9.34602 9.64802C9.28649 9.36528 9.25673 9.08998 9.25673 8.82213C9.25673 7.8251 9.60829 6.97503 10.3114 6.2719C11.0145 5.56878 11.8646 5.21721 12.8616 5.21721C13.9033 5.21721 14.7813 5.59668 15.4956 6.35561C16.3066 6.19936 17.0692 5.90918 17.7835 5.48507C17.5082 6.34073 16.9799 7.00293 16.1987 7.47168C16.8907 7.39727 17.5826 7.21126 18.2746 6.91364Z" fill="#BBBBBB"/>
</svg>
