<svg width="24" height="25" viewBox="0 0 24 25" fill="none" xmlns="http://www.w3.org/2000/svg">
<path d="M23.63 5.16665C23.168 4.37265 22.318 3.83331 21.3333 3.83331H12V5.16665H23.63ZM0 17.1666H24V18.5H0V17.1666ZM12 11.8333H24V13.1666H12V11.8333ZM12 9.16665H24V10.5H12V9.16665ZM0 14.5H24V15.8333H0V14.5ZM2.66667 21.1666H21.3333C22.318 21.1666 23.168 20.6273 23.63 19.8333H0.37C0.832 20.6273 1.682 21.1666 2.66667 21.1666ZM12 6.49998H24V7.83331H12V6.49998Z" fill="#B22334"/>
<path d="M0.0453333 18.9527C0.0566667 19.0147 0.0693333 19.0767 0.0846667 19.1374C0.102 19.2047 0.123333 19.2694 0.146 19.3347C0.205333 19.5074 0.277333 19.674 0.368 19.83L0.37 19.8334H23.63L23.6313 19.8307C23.7213 19.6754 23.7933 19.5087 23.8527 19.3367C23.8753 19.2707 23.8973 19.2047 23.9147 19.136C23.93 19.076 23.9427 19.0147 23.954 18.9527C23.9813 18.806 24 18.6554 24 18.5H0C0 18.6554 0.0186667 18.8054 0.0453333 18.9527ZM0 15.8334H24V17.1667H0V15.8334ZM0 13.1667V14.5H24V13.1667H12H0ZM12 10.5H24V11.8334H12V10.5ZM12 7.83335H24V9.16669H12V7.83335ZM0 6.50002C0 6.34469 0.02 6.19535 0.0453333 6.04735C0.0186667 6.19469 0 6.34469 0 6.50002ZM0.0853333 5.86269C0.102 5.79469 0.125333 5.73002 0.146667 5.66469C0.124 5.73002 0.102667 5.79535 0.0853333 5.86269ZM12 6.50002H24C24 6.34469 23.9813 6.19402 23.954 6.04669C23.9427 5.98535 23.9307 5.92402 23.9147 5.86402C23.8967 5.79535 23.8753 5.72869 23.852 5.66269C23.7927 5.49069 23.7207 5.32469 23.6307 5.16935C23.6313 5.16869 23.6307 5.16735 23.63 5.16669H12V6.50002Z" fill="#EEEEEE"/>
<path d="M12 3.83331H2.66667C1.194 3.83331 0 5.02731 0 6.49998V13.1666H12V3.83331Z" fill="#3C3B6E"/>
<path d="M1.33398 5.65069L1.74598 5.95002L1.58865 6.43335L1.99998 6.13469L2.41198 6.43335L2.25465 5.95002L2.66665 5.65069H2.15732L1.99998 5.16669L1.84332 5.65069H1.33398ZM2.66732 6.98402L3.07932 7.28335L2.92198 7.76669L3.33332 7.46802L3.74532 7.76669L3.58798 7.28335L3.99998 6.98402H3.49065L3.33332 6.50002L3.17665 6.98402H2.66732ZM5.33398 6.98402L5.74599 7.28335L5.58865 7.76669L5.99998 7.46802L6.41198 7.76669L6.25465 7.28335L6.66665 6.98402H6.15732L5.99998 6.50002L5.84332 6.98402H5.33398ZM8.00065 6.98402L8.41265 7.28335L8.25532 7.76669L8.66665 7.46802L9.07865 7.76669L8.92132 7.28335L9.33332 6.98402H8.82399L8.66665 6.50002L8.50998 6.98402H8.00065ZM2.66732 9.65069L3.07932 9.95002L2.92198 10.4334L3.33332 10.1347L3.74532 10.4334L3.58798 9.95002L3.99998 9.65069H3.49065L3.33332 9.16669L3.17665 9.65069H2.66732ZM5.33398 9.65069L5.74599 9.95002L5.58865 10.4334L5.99998 10.1347L6.41198 10.4334L6.25465 9.95002L6.66665 9.65069H6.15732L5.99998 9.16669L5.84332 9.65069H5.33398ZM8.00065 9.65069L8.41265 9.95002L8.25532 10.4334L8.66665 10.1347L9.07865 10.4334L8.92132 9.95002L9.33332 9.65069H8.82399L8.66665 9.16669L8.50998 9.65069H8.00065ZM4.00065 5.65069L4.41265 5.95002L4.25532 6.43335L4.66665 6.13469L5.07865 6.43335L4.92132 5.95002L5.33332 5.65069H4.82398L4.66665 5.16669L4.50998 5.65069H4.00065ZM6.66732 5.65069L7.07932 5.95002L6.92198 6.43335L7.33332 6.13469L7.74532 6.43335L7.58799 5.95002L7.99998 5.65069H7.49065L7.33332 5.16669L7.17665 5.65069H6.66732ZM9.33398 5.65069L9.74599 5.95002L9.58865 6.43335L9.99998 6.13469L10.412 6.43335L10.2547 5.95002L10.6667 5.65069H10.1573L9.99998 5.16669L9.84332 5.65069H9.33398ZM1.33398 8.31735L1.74598 8.61669L1.58865 9.10002L1.99998 8.80135L2.41198 9.10002L2.25465 8.61669L2.66665 8.31735H2.15732L1.99998 7.83335L1.84332 8.31735H1.33398ZM4.25532 9.10002L4.66665 8.80135L5.07865 9.10002L4.92132 8.61669L5.33332 8.31735H4.82398L4.66665 7.83335L4.50998 8.31735H4.00065L4.41265 8.61669L4.25532 9.10002ZM6.66732 8.31735L7.07932 8.61669L6.92198 9.10002L7.33332 8.80135L7.74532 9.10002L7.58799 8.61669L7.99998 8.31735H7.49065L7.33332 7.83335L7.17665 8.31735H6.66732ZM9.33398 8.31735L9.74599 8.61669L9.58865 9.10002L9.99998 8.80135L10.412 9.10002L10.2547 8.61669L10.6667 8.31735H10.1573L9.99998 7.83335L9.84332 8.31735H9.33398ZM1.33398 10.984L1.74598 11.2834L1.58865 11.7667L1.99998 11.468L2.41198 11.7667L2.25465 11.2834L2.66665 10.984H2.15732L1.99998 10.5L1.84332 10.984H1.33398ZM4.25532 11.7667L4.66665 11.468L5.07865 11.7667L4.92132 11.2834L5.33332 10.984H4.82398L4.66665 10.5L4.50998 10.984H4.00065L4.41265 11.2834L4.25532 11.7667ZM6.66732 10.984L7.07932 11.2834L6.92198 11.7667L7.33332 11.468L7.74532 11.7667L7.58799 11.2834L7.99998 10.984H7.49065L7.33332 10.5L7.17665 10.984H6.66732ZM9.33398 10.984L9.74599 11.2834L9.58865 11.7667L9.99998 11.468L10.412 11.7667L10.2547 11.2834L10.6667 10.984H10.1573L9.99998 10.5L9.84332 10.984H9.33398Z" fill="white"/>
</svg>
